<mxfile host="app.diagrams.net" modified="2024-05-24T06:49:42.058Z" agent="Mozilla/5.0 (Windows NT 10.0; Win64; x64) AppleWebKit/537.36 (KHTML, like Gecko) Chrome/125.0.0.0 Safari/537.36 Edg/125.0.0.0" etag="yw6Z61o09mpElcx2kxGA" version="24.4.7" type="github">
  <diagram name="第 1 页" id="KLBcU1UFpwOcNhI83W2O">
    <mxGraphModel dx="1149" dy="541" grid="1" gridSize="10" guides="1" tooltips="1" connect="1" arrows="1" fold="1" page="1" pageScale="1" pageWidth="827" pageHeight="1169" math="0" shadow="0">
      <root>
        <mxCell id="0" />
        <mxCell id="1" parent="0" />
        <mxCell id="nSG-Utk6hPr_yqTthmnt-2" value="用户" style="shape=umlActor;verticalLabelPosition=bottom;verticalAlign=top;html=1;outlineConnect=0;" vertex="1" parent="1">
          <mxGeometry x="120" y="110" width="30" height="60" as="geometry" />
        </mxCell>
        <mxCell id="nSG-Utk6hPr_yqTthmnt-4" value="产品页面类UI" style="rounded=0;whiteSpace=wrap;html=1;" vertex="1" parent="1">
          <mxGeometry x="260" y="120" width="120" height="60" as="geometry" />
        </mxCell>
        <mxCell id="nSG-Utk6hPr_yqTthmnt-5" value="产品业务类BLL" style="rounded=0;whiteSpace=wrap;html=1;" vertex="1" parent="1">
          <mxGeometry x="490" y="120" width="120" height="60" as="geometry" />
        </mxCell>
        <mxCell id="nSG-Utk6hPr_yqTthmnt-6" value="数据访问类DAL" style="rounded=0;whiteSpace=wrap;html=1;" vertex="1" parent="1">
          <mxGeometry x="720" y="120" width="120" height="60" as="geometry" />
        </mxCell>
        <mxCell id="nSG-Utk6hPr_yqTthmnt-7" value="" style="endArrow=none;dashed=1;html=1;dashPattern=1 3;strokeWidth=2;rounded=0;" edge="1" parent="1">
          <mxGeometry width="50" height="50" relative="1" as="geometry">
            <mxPoint x="134.29" y="970" as="sourcePoint" />
            <mxPoint x="134.7" y="200" as="targetPoint" />
          </mxGeometry>
        </mxCell>
        <mxCell id="nSG-Utk6hPr_yqTthmnt-8" value="" style="endArrow=none;dashed=1;html=1;dashPattern=1 3;strokeWidth=2;rounded=0;" edge="1" parent="1">
          <mxGeometry width="50" height="50" relative="1" as="geometry">
            <mxPoint x="319" y="950" as="sourcePoint" />
            <mxPoint x="319.41" y="190" as="targetPoint" />
          </mxGeometry>
        </mxCell>
        <mxCell id="nSG-Utk6hPr_yqTthmnt-9" value="" style="endArrow=none;dashed=1;html=1;dashPattern=1 3;strokeWidth=2;rounded=0;" edge="1" parent="1">
          <mxGeometry width="50" height="50" relative="1" as="geometry">
            <mxPoint x="550" y="960" as="sourcePoint" />
            <mxPoint x="549.41" y="190" as="targetPoint" />
          </mxGeometry>
        </mxCell>
        <mxCell id="nSG-Utk6hPr_yqTthmnt-10" value="" style="endArrow=none;dashed=1;html=1;dashPattern=1 3;strokeWidth=2;rounded=0;" edge="1" parent="1">
          <mxGeometry width="50" height="50" relative="1" as="geometry">
            <mxPoint x="780" y="980" as="sourcePoint" />
            <mxPoint x="779.41" y="190" as="targetPoint" />
          </mxGeometry>
        </mxCell>
        <mxCell id="nSG-Utk6hPr_yqTthmnt-11" value="" style="endArrow=classic;html=1;rounded=0;" edge="1" parent="1">
          <mxGeometry width="50" height="50" relative="1" as="geometry">
            <mxPoint x="130" y="240" as="sourcePoint" />
            <mxPoint x="320" y="240" as="targetPoint" />
          </mxGeometry>
        </mxCell>
        <mxCell id="nSG-Utk6hPr_yqTthmnt-12" value="1.输入添加供应商" style="edgeLabel;html=1;align=center;verticalAlign=middle;resizable=0;points=[];" vertex="1" connectable="0" parent="nSG-Utk6hPr_yqTthmnt-11">
          <mxGeometry x="0.018" y="-2" relative="1" as="geometry">
            <mxPoint as="offset" />
          </mxGeometry>
        </mxCell>
        <mxCell id="nSG-Utk6hPr_yqTthmnt-13" value="" style="endArrow=classic;html=1;rounded=0;" edge="1" parent="1">
          <mxGeometry width="50" height="50" relative="1" as="geometry">
            <mxPoint x="320" y="290" as="sourcePoint" />
            <mxPoint x="550" y="290" as="targetPoint" />
          </mxGeometry>
        </mxCell>
        <mxCell id="nSG-Utk6hPr_yqTthmnt-14" value="2.检查供应商信息是否合法" style="edgeLabel;html=1;align=center;verticalAlign=middle;resizable=0;points=[];" vertex="1" connectable="0" parent="nSG-Utk6hPr_yqTthmnt-13">
          <mxGeometry x="0.4124" y="-4" relative="1" as="geometry">
            <mxPoint x="-43" y="-14" as="offset" />
          </mxGeometry>
        </mxCell>
        <mxCell id="nSG-Utk6hPr_yqTthmnt-15" value="选择" style="shape=umlFrame;whiteSpace=wrap;html=1;pointerEvents=0;" vertex="1" parent="1">
          <mxGeometry x="70" y="310" width="780" height="330" as="geometry" />
        </mxCell>
        <mxCell id="nSG-Utk6hPr_yqTthmnt-16" value="" style="endArrow=none;dashed=1;html=1;rounded=0;entryX=0.999;entryY=0.326;entryDx=0;entryDy=0;entryPerimeter=0;exitX=0.001;exitY=0.342;exitDx=0;exitDy=0;exitPerimeter=0;" edge="1" parent="1">
          <mxGeometry width="50" height="50" relative="1" as="geometry">
            <mxPoint x="71.55999999999997" y="395.28000000000003" as="sourcePoint" />
            <mxPoint x="850" y="390.00000000000006" as="targetPoint" />
          </mxGeometry>
        </mxCell>
        <mxCell id="nSG-Utk6hPr_yqTthmnt-19" value="[供应商信息不合法]" style="text;html=1;align=center;verticalAlign=middle;resizable=0;points=[];autosize=1;strokeColor=none;fillColor=none;" vertex="1" parent="1">
          <mxGeometry x="25" y="338" width="130" height="30" as="geometry" />
        </mxCell>
        <mxCell id="nSG-Utk6hPr_yqTthmnt-20" value="[供应商信息合法]" style="text;html=1;align=center;verticalAlign=middle;resizable=0;points=[];autosize=1;strokeColor=none;fillColor=none;" vertex="1" parent="1">
          <mxGeometry x="35" y="400" width="110" height="30" as="geometry" />
        </mxCell>
        <mxCell id="nSG-Utk6hPr_yqTthmnt-26" value="3.提示错误信息" style="text;html=1;align=center;verticalAlign=middle;resizable=0;points=[];autosize=1;strokeColor=none;fillColor=none;" vertex="1" parent="1">
          <mxGeometry x="380" y="338" width="110" height="30" as="geometry" />
        </mxCell>
        <mxCell id="nSG-Utk6hPr_yqTthmnt-27" value="" style="endArrow=classic;html=1;rounded=0;" edge="1" parent="1">
          <mxGeometry width="50" height="50" relative="1" as="geometry">
            <mxPoint x="550" y="418" as="sourcePoint" />
            <mxPoint x="780" y="410" as="targetPoint" />
          </mxGeometry>
        </mxCell>
        <mxCell id="nSG-Utk6hPr_yqTthmnt-29" value="Text" style="edgeLabel;html=1;align=center;verticalAlign=middle;resizable=0;points=[];" vertex="1" connectable="0" parent="nSG-Utk6hPr_yqTthmnt-27">
          <mxGeometry x="0.4362" y="-3" relative="1" as="geometry">
            <mxPoint as="offset" />
          </mxGeometry>
        </mxCell>
        <mxCell id="nSG-Utk6hPr_yqTthmnt-36" value="" style="endArrow=classic;html=1;rounded=0;" edge="1" parent="1">
          <mxGeometry width="50" height="50" relative="1" as="geometry">
            <mxPoint x="550" y="360" as="sourcePoint" />
            <mxPoint x="320" y="360" as="targetPoint" />
          </mxGeometry>
        </mxCell>
      </root>
    </mxGraphModel>
  </diagram>
</mxfile>
